<?xml version="1.0" standalone="no"?>
<!DOCTYPE svg PUBLIC "-//W3C//DTD SVG 20010904//EN"
 "http://www.w3.org/TR/2001/REC-SVG-20010904/DTD/svg10.dtd">
<svg version="1.0" xmlns="http://www.w3.org/2000/svg"
 width="529.000000pt" height="529.000000pt" viewBox="0 0 529.000000 529.000000"
 preserveAspectRatio="xMidYMid meet">
<metadata>
Created by potrace 1.14, written by Peter Selinger 2001-2017
</metadata>
<g transform="translate(0.000000,529.000000) scale(0.100000,-0.100000)"
fill="#000000" stroke="none">
<path d="M0 2645 l0 -2645 2645 0 2645 0 0 2645 0 2645 -2645 0 -2645 0 0
-2645z m3204 2425 c27 -14 68 -46 91 -72 74 -82 75 -91 75 -518 l0 -377 -30
-61 c-33 -65 -76 -109 -143 -144 -42 -23 -46 -23 -516 -26 -549 -3 -545 -4
-634 78 -34 31 -63 70 -78 102 -24 53 -24 54 -24 433 l0 380 33 67 c35 72 79
114 153 148 42 19 63 20 534 17 l490 -2 49 -25z m-1053 -1660 c14 -19 22 -66
34 -190 18 -182 107 -880 121 -949 3 -13 9 -20 13 -15 8 8 109 324 196 609 48
155 60 181 95 195 23 9 34 9 56 -2 22 -10 31 -26 46 -83 10 -38 57 -185 103
-325 46 -140 91 -292 101 -338 10 -49 21 -78 25 -70 24 43 109 658 133 963 14
174 15 180 41 202 59 51 125 17 125 -64 0 -79 -28 -375 -55 -583 -52 -397
-166 -991 -197 -1022 -25 -25 -82 -23 -107 3 -28 30 -131 453 -205 844 -18 94
-37 170 -41 170 -11 0 -45 -116 -141 -480 -42 -159 -90 -339 -106 -399 -15
-61 -36 -118 -45 -128 -16 -18 -78 -25 -99 -10 -31 20 -41 72 -84 427 -17 138
-44 349 -60 470 -38 281 -79 634 -82 707 -3 74 18 100 75 96 29 -2 45 -10 58
-28z m2206 3 c9 -12 13 -71 13 -207 0 -105 7 -357 15 -561 8 -203 15 -482 15
-618 l0 -248 -25 -24 c-29 -30 -73 -33 -105 -7 -21 17 -21 23 -25 312 -2 162
-7 348 -11 413 l-7 119 -254 251 c-139 139 -257 253 -262 255 -6 2 -10 -129
-10 -315 0 -175 -5 -475 -10 -667 -10 -349 -10 -350 -33 -368 -33 -26 -74 -23
-105 8 l-26 26 9 356 c11 447 12 935 1 1114 -8 131 -8 137 12 157 13 13 34 21
55 21 31 0 41 -8 97 -77 69 -85 472 -498 503 -515 19 -10 19 -6 13 144 -3 86
-3 213 0 284 6 118 8 130 30 152 20 20 31 23 61 18 20 -3 43 -13 49 -23z
m-3014 2 c132 -28 229 -107 293 -239 52 -108 68 -196 61 -345 -8 -183 -47
-284 -142 -367 -83 -73 -158 -87 -385 -74 l-85 5 -5 -322 c-5 -315 -6 -323
-27 -344 -28 -28 -79 -28 -107 1 l-21 21 4 802 c4 847 3 840 48 866 27 16 287
13 366 -4z m1672 -1919 c77 -46 133 -142 162 -283 25 -117 24 -505 0 -628 -47
-231 -142 -365 -261 -365 -42 0 -105 23 -159 59 -126 82 -198 321 -183 606 19
350 87 532 230 616 45 26 58 30 109 26 37 -3 73 -14 102 -31z m-1656 -7 c116
-51 176 -177 141 -298 -14 -51 -54 -67 -95 -37 -16 12 -19 25 -17 90 4 115
-35 157 -144 157 -108 0 -184 -74 -169 -164 20 -117 70 -195 239 -375 183
-194 224 -290 184 -426 -18 -60 -99 -137 -173 -165 -180 -68 -339 -17 -386
124 -19 60 -17 176 4 208 23 35 59 35 86 1 16 -20 19 -35 14 -73 -11 -97 32
-161 116 -169 70 -6 111 3 165 39 59 39 80 78 72 131 -11 69 -45 119 -173 251
-195 201 -265 325 -267 467 -1 82 11 113 66 175 78 89 220 116 337 64z m714
17 c153 -36 244 -170 255 -374 8 -170 -30 -283 -116 -349 -62 -47 -108 -56
-239 -50 l-113 6 0 -244 c0 -208 -2 -246 -16 -259 -32 -33 -91 -12 -95 34 -1
14 -1 289 -1 611 2 707 -14 639 155 639 62 0 138 -6 170 -14z m1937 -6 c11
-11 20 -29 20 -40 0 -11 -9 -29 -20 -40 -18 -18 -33 -20 -150 -20 l-130 0 -1
-57 c-1 -32 -4 -289 -8 -571 -6 -493 -7 -514 -25 -528 -26 -19 -61 -18 -80 2
-14 14 -15 74 -9 585 l6 569 -131 0 c-124 0 -132 1 -146 22 -34 48 -8 84 64
91 25 2 168 4 318 5 260 2 273 1 292 -18z m380 -9 c16 -31 13 -999 -3 -1031
-10 -20 -20 -25 -52 -25 -31 0 -42 5 -51 23 -8 17 -10 157 -6 520 5 549 3 532
68 532 23 0 37 -6 44 -19z m-6 -1137 c9 -8 16 -31 16 -49 0 -41 -22 -65 -61
-65 -33 0 -69 31 -69 59 0 10 9 30 21 45 24 30 69 35 93 10z"/>
<path d="M2153 5034 c-51 -19 -112 -76 -138 -129 -14 -30 -19 -64 -19 -130
l-1 -90 662 -3 663 -2 6 25 c10 39 -5 144 -27 195 -25 55 -61 95 -114 123 -39
22 -49 22 -515 24 -401 2 -482 -1 -517 -13z m78 -146 c6 -11 8 -31 5 -44 -16
-64 -110 -46 -104 19 5 53 75 71 99 25z m142 1 c15 -24 0 -68 -28 -81 -51 -23
-102 51 -63 90 17 17 79 11 91 -9z m135 9 c21 -21 14 -66 -13 -84 -49 -32
-104 23 -75 75 12 24 68 29 88 9z"/>
<path d="M2154 4875 c-10 -25 4 -45 31 -45 30 0 43 24 25 45 -16 19 -49 19
-56 0z"/>
<path d="M2294 4876 c-11 -28 4 -48 33 -44 22 2 28 8 28 28 0 20 -6 26 -28 28
-18 2 -29 -2 -33 -12z"/>
<path d="M2434 4876 c-11 -28 4 -48 33 -44 22 2 28 8 28 28 0 20 -6 26 -28 28
-18 2 -29 -2 -33 -12z"/>
<path d="M1994 4647 c-2 -7 -3 -85 -2 -172 l3 -160 654 -3 c481 -1 657 1 668
9 11 9 13 45 11 173 l-3 161 -663 3 c-536 2 -664 0 -668 -11z m224 -113 c26
-18 28 -50 5 -76 -18 -20 -63 -24 -81 -6 -28 28 -1 98 37 98 9 0 27 -7 39 -16z
m144 -1 c42 -38 8 -101 -52 -93 -41 5 -53 70 -18 94 29 20 47 20 70 -1z m140
0 c37 -33 13 -95 -37 -95 -52 0 -75 67 -33 96 29 20 47 20 70 -1z"/>
<path d="M2154 4505 c-9 -23 3 -45 24 -45 25 0 44 23 36 44 -8 20 -53 21 -60
1z"/>
<path d="M2294 4505 c-10 -25 22 -53 44 -39 9 6 17 20 17 30 0 25 -52 33 -61
9z"/>
<path d="M2434 4505 c-10 -25 22 -53 44 -39 9 6 17 20 17 30 0 25 -52 33 -61
9z"/>
<path d="M1997 4283 c-13 -12 -7 -129 9 -182 18 -61 69 -123 128 -154 40 -22
47 -22 521 -22 l480 0 49 25 c93 48 135 124 139 252 l2 83 -661 3 c-363 1
-664 -1 -667 -5z m225 -120 c22 -20 23 -51 1 -75 -31 -35 -93 -10 -93 38 0 48
55 70 92 37z m142 1 c32 -31 7 -94 -37 -94 -27 0 -57 28 -57 53 0 48 61 74 94
41z m140 0 c32 -31 7 -94 -37 -94 -27 0 -57 28 -57 53 0 48 61 74 94 41z"/>
<path d="M2159 4144 c-9 -11 -10 -20 -2 -32 14 -22 43 -22 57 1 9 15 7 21 -8
33 -25 18 -31 18 -47 -2z"/>
<path d="M2300 4146 c-27 -33 18 -72 48 -42 13 13 14 20 6 34 -15 23 -38 26
-54 8z"/>
<path d="M2440 4146 c-27 -33 18 -72 48 -42 13 13 14 20 6 34 -15 23 -38 26
-54 8z"/>
<path d="M1085 3269 c-3 -8 -4 -171 -3 -364 l3 -349 35 -8 c19 -4 87 -9 150
-10 100 -3 119 0 150 17 162 95 174 493 18 642 -57 55 -119 76 -240 81 -86 4
-109 2 -113 -9z"/>
<path d="M2834 1391 c-110 -67 -164 -255 -150 -522 10 -217 40 -357 89 -421
62 -81 149 -109 208 -67 67 48 88 143 96 440 9 343 -16 491 -93 558 -42 37
-101 42 -150 12z"/>
<path d="M1877 1403 c-3 -5 -8 -126 -12 -270 l-7 -261 22 -12 c12 -6 65 -12
118 -13 120 -2 151 12 187 89 66 140 28 358 -75 429 -49 34 -219 61 -233 38z"/>
</g>
</svg>
